<svg width="1200" height="630" viewBox="0 0 1200 630" xmlns="http://www.w3.org/2000/svg">
  <rect width="1200" height="630" fill="#0A0F14"/>
  <circle cx="1040" cy="110" r="230" fill="#35D0A5" opacity=".06"/>
  <circle cx="1080" cy="480" r="300" fill="#69A7FF" opacity=".04"/>
  <g transform="translate(72 72)">
    <rect width="76" height="76" rx="16" fill="#111820"/>
    <path d="M22 16H42C53.0457 16 62 24.9543 62 36C62 47.0457 53.0457 56 42 56H35V67H22V16Z" fill="#EAF1F5"/>
    <path d="M35 29H42C45.866 29 49 32.134 49 36C49 39.866 45.866 43 42 43H35V29Z" fill="#111820"/>
    <path d="M54 15L27 61" stroke="#35D0A5" stroke-width="6" stroke-linecap="round"/>
  </g>
  <text x="170" y="125" fill="#EAF1F5" font-family="Manrope, Inter, Arial, sans-serif" font-size="34" font-weight="650">pseudonymize</text>
  <text x="382" y="125" fill="#35D0A5" font-family="IBM Plex Mono, monospace" font-size="20">.io</text>
  <text x="72" y="300" fill="#EAF1F5" font-family="Manrope, Inter, Arial, sans-serif" font-size="66" font-weight="650" letter-spacing="-2">Keep the structure.</text>
  <text x="72" y="378" fill="#EAF1F5" font-family="Manrope, Inter, Arial, sans-serif" font-size="66" font-weight="650" letter-spacing="-2">Lose the identity.</text>
  <text x="72" y="472" fill="#8A9AAA" font-family="Manrope, Inter, Arial, sans-serif" font-size="26">Pseudonymize sensitive data, text and files</text>
  <text x="72" y="510" fill="#8A9AAA" font-family="Manrope, Inter, Arial, sans-serif" font-size="26">without destroying their usefulness.</text>
</svg>